<mxfile host="app.diagrams.net" agent="Mozilla/5.0 (X11; Linux x86_64; rv:128.0) Gecko/20100101 Firefox/128.0" version="28.0.1">
  <diagram name="Page-1" id="2vrLj968ECqoZVZ6QWVB">
    <mxGraphModel dx="1602" dy="1089" grid="1" gridSize="10" guides="1" tooltips="1" connect="1" arrows="1" fold="1" page="1" pageScale="1" pageWidth="850" pageHeight="1100" math="0" shadow="0">
      <root>
        <mxCell id="0" />
        <mxCell id="1" parent="0" />
        <mxCell id="EXg-Ey4Vl2FOUV-P6atm-1" value="Thread:&lt;br&gt;igtl server" style="rounded=0;whiteSpace=wrap;html=1;" vertex="1" parent="1">
          <mxGeometry x="165" y="10" width="150" height="60" as="geometry" />
        </mxCell>
        <mxCell id="EXg-Ey4Vl2FOUV-P6atm-2" value="Thread:&lt;br&gt;dbus server" style="rounded=0;whiteSpace=wrap;html=1;" vertex="1" parent="1">
          <mxGeometry x="345" y="10" width="120" height="60" as="geometry" />
        </mxCell>
        <mxCell id="EXg-Ey4Vl2FOUV-P6atm-3" value="Thread:&lt;br&gt;process monitor" style="rounded=0;whiteSpace=wrap;html=1;" vertex="1" parent="1">
          <mxGeometry x="505" y="10" width="120" height="60" as="geometry" />
        </mxCell>
        <mxCell id="EXg-Ey4Vl2FOUV-P6atm-4" value="&lt;font style=&quot;font-size: 14px&quot;&gt;Actions:&lt;br&gt;1. when CC Dbus Server receive SDR hello, mark sdr running;&lt;br&gt;2. periodic inspect /proc&amp;nbsp; that SDR still in running and PID not change;&lt;br&gt;3. if state from normal to abnormal, need send Message to PIU reset PIU&#39;s status; expecially when HW in running, must terminate it.&lt;br&gt;&lt;br&gt;&lt;/font&gt;" style="text;html=1;strokeColor=default;fillColor=none;align=left;verticalAlign=top;whiteSpace=wrap;rounded=0;dashed=1;" vertex="1" parent="1">
          <mxGeometry x="65" y="640" width="440" height="320" as="geometry" />
        </mxCell>
        <mxCell id="EXg-Ey4Vl2FOUV-P6atm-5" value="" style="endArrow=none;html=1;rounded=0;fontSize=14;entryX=0.5;entryY=1;entryDx=0;entryDy=0;startArrow=none;" edge="1" parent="1" source="EXg-Ey4Vl2FOUV-P6atm-12" target="EXg-Ey4Vl2FOUV-P6atm-3">
          <mxGeometry width="50" height="50" relative="1" as="geometry">
            <mxPoint x="565" y="610" as="sourcePoint" />
            <mxPoint x="605" y="160" as="targetPoint" />
          </mxGeometry>
        </mxCell>
        <mxCell id="EXg-Ey4Vl2FOUV-P6atm-6" value="" style="endArrow=none;html=1;rounded=0;fontSize=14;entryX=0.5;entryY=1;entryDx=0;entryDy=0;startArrow=none;" edge="1" parent="1" source="EXg-Ey4Vl2FOUV-P6atm-23">
          <mxGeometry width="50" height="50" relative="1" as="geometry">
            <mxPoint x="244.5" y="610" as="sourcePoint" />
            <mxPoint x="244.5" y="70" as="targetPoint" />
          </mxGeometry>
        </mxCell>
        <mxCell id="EXg-Ey4Vl2FOUV-P6atm-7" value="" style="endArrow=none;html=1;rounded=0;fontSize=14;entryX=0.5;entryY=1;entryDx=0;entryDy=0;" edge="1" parent="1">
          <mxGeometry width="50" height="50" relative="1" as="geometry">
            <mxPoint x="404.5" y="610" as="sourcePoint" />
            <mxPoint x="404.5" y="70" as="targetPoint" />
          </mxGeometry>
        </mxCell>
        <mxCell id="EXg-Ey4Vl2FOUV-P6atm-8" value="proactive send CMD to PIU;" style="rounded=1;whiteSpace=wrap;html=1;fontSize=14;" vertex="1" parent="1">
          <mxGeometry x="185" y="300" width="120" height="60" as="geometry" />
        </mxCell>
        <mxCell id="EXg-Ey4Vl2FOUV-P6atm-9" value="&lt;span style=&quot;text-align: left&quot;&gt;periodic inspect /proc&amp;nbsp; that SDR still in running and PID not change;&lt;/span&gt;" style="rounded=1;whiteSpace=wrap;html=1;fontSize=14;" vertex="1" parent="1">
          <mxGeometry x="505" y="260" width="120" height="90" as="geometry" />
        </mxCell>
        <mxCell id="EXg-Ey4Vl2FOUV-P6atm-10" value="broken" style="edgeStyle=orthogonalEdgeStyle;rounded=0;orthogonalLoop=1;jettySize=auto;html=1;exitX=0;exitY=0.5;exitDx=0;exitDy=0;entryX=1;entryY=0.5;entryDx=0;entryDy=0;fontSize=14;" edge="1" parent="1" source="EXg-Ey4Vl2FOUV-P6atm-12" target="EXg-Ey4Vl2FOUV-P6atm-8">
          <mxGeometry relative="1" as="geometry" />
        </mxCell>
        <mxCell id="EXg-Ey4Vl2FOUV-P6atm-11" value="normal" style="edgeStyle=orthogonalEdgeStyle;rounded=0;orthogonalLoop=1;jettySize=auto;html=1;entryX=1;entryY=0.5;entryDx=0;entryDy=0;fontSize=14;" edge="1" parent="1" source="EXg-Ey4Vl2FOUV-P6atm-12" target="EXg-Ey4Vl2FOUV-P6atm-9">
          <mxGeometry relative="1" as="geometry">
            <Array as="points">
              <mxPoint x="645" y="460" />
              <mxPoint x="645" y="305" />
            </Array>
          </mxGeometry>
        </mxCell>
        <mxCell id="EXg-Ey4Vl2FOUV-P6atm-12" value="normal broken?" style="rhombus;whiteSpace=wrap;html=1;fontSize=14;" vertex="1" parent="1">
          <mxGeometry x="525" y="420" width="80" height="80" as="geometry" />
        </mxCell>
        <mxCell id="EXg-Ey4Vl2FOUV-P6atm-13" value="" style="endArrow=none;html=1;rounded=0;fontSize=14;entryX=0.5;entryY=1;entryDx=0;entryDy=0;" edge="1" parent="1" target="EXg-Ey4Vl2FOUV-P6atm-12">
          <mxGeometry width="50" height="50" relative="1" as="geometry">
            <mxPoint x="565" y="610" as="sourcePoint" />
            <mxPoint x="565" y="70" as="targetPoint" />
          </mxGeometry>
        </mxCell>
        <mxCell id="EXg-Ey4Vl2FOUV-P6atm-14" style="edgeStyle=orthogonalEdgeStyle;rounded=0;orthogonalLoop=1;jettySize=auto;html=1;exitX=1;exitY=0.5;exitDx=0;exitDy=0;fontSize=14;" edge="1" parent="1" source="EXg-Ey4Vl2FOUV-P6atm-15" target="EXg-Ey4Vl2FOUV-P6atm-17">
          <mxGeometry relative="1" as="geometry" />
        </mxCell>
        <mxCell id="EXg-Ey4Vl2FOUV-P6atm-15" value="siho processes Hello" style="rounded=1;whiteSpace=wrap;html=1;fontSize=14;" vertex="1" parent="1">
          <mxGeometry x="345" y="90" width="120" height="60" as="geometry" />
        </mxCell>
        <mxCell id="EXg-Ey4Vl2FOUV-P6atm-16" style="edgeStyle=orthogonalEdgeStyle;rounded=0;orthogonalLoop=1;jettySize=auto;html=1;exitX=1;exitY=0.5;exitDx=0;exitDy=0;fontSize=14;" edge="1" parent="1" source="EXg-Ey4Vl2FOUV-P6atm-17" target="EXg-Ey4Vl2FOUV-P6atm-21">
          <mxGeometry relative="1" as="geometry" />
        </mxCell>
        <mxCell id="EXg-Ey4Vl2FOUV-P6atm-17" value="add it to monitor list" style="rounded=1;whiteSpace=wrap;html=1;fontSize=14;" vertex="1" parent="1">
          <mxGeometry x="515" y="110" width="120" height="60" as="geometry" />
        </mxCell>
        <mxCell id="EXg-Ey4Vl2FOUV-P6atm-18" style="edgeStyle=orthogonalEdgeStyle;rounded=0;orthogonalLoop=1;jettySize=auto;html=1;exitX=0.5;exitY=1;exitDx=0;exitDy=0;entryX=0.5;entryY=0;entryDx=0;entryDy=0;fontSize=14;" edge="1" parent="1" source="EXg-Ey4Vl2FOUV-P6atm-21" target="EXg-Ey4Vl2FOUV-P6atm-9">
          <mxGeometry relative="1" as="geometry" />
        </mxCell>
        <mxCell id="EXg-Ey4Vl2FOUV-P6atm-19" value="all present" style="edgeLabel;html=1;align=center;verticalAlign=middle;resizable=0;points=[];fontSize=14;" vertex="1" connectable="0" parent="EXg-Ey4Vl2FOUV-P6atm-18">
          <mxGeometry x="0.175" y="2" relative="1" as="geometry">
            <mxPoint as="offset" />
          </mxGeometry>
        </mxCell>
        <mxCell id="EXg-Ey4Vl2FOUV-P6atm-20" value="still absent" style="edgeStyle=orthogonalEdgeStyle;rounded=0;orthogonalLoop=1;jettySize=auto;html=1;exitX=0.5;exitY=0;exitDx=0;exitDy=0;entryX=0.933;entryY=-0.017;entryDx=0;entryDy=0;entryPerimeter=0;fontSize=14;" edge="1" parent="1" source="EXg-Ey4Vl2FOUV-P6atm-21" target="EXg-Ey4Vl2FOUV-P6atm-17">
          <mxGeometry relative="1" as="geometry" />
        </mxCell>
        <mxCell id="EXg-Ey4Vl2FOUV-P6atm-21" value="all process in list?" style="rhombus;whiteSpace=wrap;html=1;fontSize=14;" vertex="1" parent="1">
          <mxGeometry x="685" y="100" width="80" height="80" as="geometry" />
        </mxCell>
        <mxCell id="EXg-Ey4Vl2FOUV-P6atm-22" value="*send RST to PIU On first PIU connection." style="rounded=1;whiteSpace=wrap;html=1;dashed=1;fontSize=14;strokeColor=default;" vertex="1" parent="1">
          <mxGeometry x="185" y="80" width="120" height="60" as="geometry" />
        </mxCell>
        <mxCell id="EXg-Ey4Vl2FOUV-P6atm-23" value="&lt;br&gt;read status from PIU;" style="rounded=1;whiteSpace=wrap;html=1;fontSize=14;" vertex="1" parent="1">
          <mxGeometry x="185" y="190" width="120" height="60" as="geometry" />
        </mxCell>
        <mxCell id="EXg-Ey4Vl2FOUV-P6atm-24" value="" style="endArrow=none;html=1;rounded=0;fontSize=14;entryX=0.5;entryY=1;entryDx=0;entryDy=0;" edge="1" parent="1" target="EXg-Ey4Vl2FOUV-P6atm-23">
          <mxGeometry width="50" height="50" relative="1" as="geometry">
            <mxPoint x="244.5" y="610" as="sourcePoint" />
            <mxPoint x="244.5" y="70" as="targetPoint" />
          </mxGeometry>
        </mxCell>
        <mxCell id="EXg-Ey4Vl2FOUV-P6atm-26" value="" style="swimlane;swimlaneHead=0;swimlaneBody=0;fontStyle=0;connectable=0;fillColor=none;startSize=0;collapsible=0;recursiveResize=0;expand=0;" vertex="1" parent="1">
          <mxGeometry x="665" y="810" width="120" height="120" as="geometry">
            <mxRectangle width="120" height="120" as="alternateBounds" />
          </mxGeometry>
        </mxCell>
      </root>
    </mxGraphModel>
  </diagram>
</mxfile>
